/* XPM */
static char * colorPicker_xpm[] = {
"18 18 37 1",
" 	c None",
".	c #000000",
"+	c #B4A261",
"@	c #D5C072",
"#	c #847646",
"$	c #C7B26A",
"%	c #3F3922",
"&	c #797D79",
"*	c #8F804D",
"=	c #5E5432",
"-	c #1E1A10",
";	c #0F0D08",
">	c #070603",
",	c #FDFDFD",
"'	c #FEFEFE",
")	c #FCFCFC",
"!	c #DCDCDC",
"~	c #DEDEDE",
"{	c #F9F9F9",
"]	c #DFE5EB",
"^	c #C6CDD3",
"/	c #DBE2E9",
"(	c #B6C9DC",
"_	c #869EB4",
":	c #CCD7E2",
"<	c #A2B7CC",
"[	c #8DA3B8",
"}	c #C3CFDB",
"|	c #A0B5C9",
"1	c #8CA0B4",
"2	c #CCD5DE",
"3	c #A1B6CA",
"4	c #96ACC2",
"5	c #ACC0D2",
"6	c #8FA6BD",
"7	c #B0BBC7",
"8	c #070707",
"            ...   ",
"           .+@#.  ",
"           .$%..& ",
"        ..*%=...& ",
"         .-;>..&& ",
"        .,...&&&  ",
"       .')!..&    ",
"      .')~.&.&    ",
"     .{]^.&& &    ",
"    ./(_.&&       ",
"   .:<[.&&        ",
"  .}|1.&&         ",
" .234.&&          ",
" .56.&&           ",
".7..&&            ",
" 8&&&             ",
"  &               ",
"                  "};
