/* XPM */
static char * key_enter_xpm[] = {
"16 16 52 1",
" 	c None",
".	c #969696",
"+	c #848484",
"@	c #FFFFFF",
"#	c #EDEDED",
"$	c #DCDCDC",
"%	c #5E5E5E",
"&	c #9F9F9F",
"*	c #575757",
"=	c #E3E3E3",
"-	c #E7E7E7",
";	c #E9E9E9",
">	c #EBEBEB",
",	c #EFEFEF",
"'	c #F1F1F1",
")	c #F3F3F3",
"!	c #F6F6F6",
"~	c #515151",
"{	c #E4E4E4",
"]	c #F0F0F0",
"^	c #F2F2F2",
"/	c #F4F4F4",
"(	c #F8F8F8",
"_	c #4B4B4B",
":	c #EAEAEA",
"<	c #ECECEC",
"[	c #EEEEEE",
"}	c #565656",
"|	c #FBFBFB",
"1	c #444444",
"2	c #DDDDDD",
"3	c #939393",
"4	c #D3D3D3",
"5	c #F5F5F5",
"6	c #F7F7F7",
"7	c #FDFDFD",
"8	c #3E3E3E",
"9	c #D7D7D7",
"0	c #F9F9F9",
"a	c #383838",
"b	c #6D6D6D",
"c	c #FCFCFC",
"d	c #323232",
"e	c #2B2B2B",
"f	c #252525",
"g	c #1F1F1F",
"h	c #191919",
"i	c #121212",
"j	c #898989",
"k	c #0C0C0C",
"l	c #000000",
"m	c #060606",
" .............+ ",
" .@##########$% ",
" .#@@@@@@@@@@&* ",
" .#@=-;>#,')!&~ ",
" .#@{;>#]^/!(&_ ",
" .#@:<[]^/}@|&1 ",
" .2&3&4)56}@7&8 ",
" .+++9@560}@@&a ",
"    +9@(bc}@@&d ",
"    +9@}}}}@@&e ",
"    +9@7b@@@@&f ",
"    +9@@@@@@@&g ",
"    +9@@@@@@@&h ",
"    +9@@@@@@@&i ",
"    +9&&&&&&&jk ",
"    +%%_afilllm "};
