/* XPM */
static char * measure_xpm[] = {
"18 18 4 1",
" 	c None",
".	c #DEDADE",
"+	c #000000",
"@	c #949194",
"       .++.       ",
"      .+@@+@      ",
"      +@  .+      ",
"      @+..+@      ",
"       @++@       ",
"      .++++@      ",
"      ++++++      ",
"     .++@@++@     ",
"     ++@@ @++     ",
"    .++@   ++@    ",
"    ++@@   @++    ",
"   .++@     ++@   ",
"   ++@@     @++   ",
"  .++@       ++@  ",
"  ++@@       @++  ",
"  ++@         ++@ ",
"  +@@          +@ ",
"   @            @ "};
