/* XPM */
static char * prefs_xpm[] = {
"19 18 5 1",
" 	c None",
".	c #000000",
"+	c #CFCFCF",
"@	c #797D79",
"#	c #FFFFFF",
"    ...            ",
"    .++.           ",
"     .++.          ",
" ..   .+.@         ",
" .+. .++.@         ",
" .++.++#.@         ",
"  .++#+++.         ",
"   ....+#+.        ",
"    @@@.+#+.       ",
"        .+#+....   ",
"         .++#+#+.  ",
"          .+++.++. ",
"          .#+.@.+.@",
"          .+.@@ ..@",
"          .++.   @@",
"           .++.    ",
"            ...@   ",
"             @@@   "};
